<svg height="600" viewBox="0 0 1800 600" width="1800" xmlns="http://www.w3.org/2000/svg">
<g class="g-chart">
<g class="g-title" transform="translate(900,25)">
<text dy=".35em" fill="#777" font-family="sans-serif" font-size="24px" text-anchor="middle" x="0" y="0">
Mean Survival Rate Comparison
</text>
</g>
<g class="x-axis" transform="translate(60,550)">
<line shape-rendering="crispEdges" stroke="#bbbbbb" stroke-width="1" x1="0" x2="1700" y1="0" y2="0"/>
<g class="tick" transform="translate(0,0)">
<line shape-rendering="crispEdges" stroke="#bbbbbb" stroke-width="1px" x1="0" x2="0" y1="0" y2="6"/>
<text dy=".35em" fill="#777" font-family="sans-serif" font-size="12px" text-anchor="middle" transform="rotate(0,0,16)" x="0" y="16">
1900
</text>
</g>
<g class="tick" transform="translate(170,0)">
<line shape-rendering="crispEdges" stroke="#bbbbbb" stroke-width="1px" x1="0" x2="0" y1="0" y2="6"/>
<text dy=".35em" fill="#777" font-family="sans-serif" font-size="12px" text-anchor="middle" transform="rotate(0,0,16)" x="0" y="16">
1920
</text>
</g>
<g class="tick" transform="translate(340,0)">
<line shape-rendering="crispEdges" stroke="#bbbbbb" stroke-width="1px" x1="0" x2="0" y1="0" y2="6"/>
<text dy=".35em" fill="#777" font-family="sans-serif" font-size="12px" text-anchor="middle" transform="rotate(0,0,16)" x="0" y="16">
1940
</text>
</g>
<g class="tick" transform="translate(510.00003,0)">
<line shape-rendering="crispEdges" stroke="#bbbbbb" stroke-width="1px" x1="0" x2="0" y1="0" y2="6"/>
<text dy=".35em" fill="#777" font-family="sans-serif" font-size="12px" text-anchor="middle" transform="rotate(0,0,16)" x="0" y="16">
1960
</text>
</g>
<g class="tick" transform="translate(680,0)">
<line shape-rendering="crispEdges" stroke="#bbbbbb" stroke-width="1px" x1="0" x2="0" y1="0" y2="6"/>
<text dy=".35em" fill="#777" font-family="sans-serif" font-size="12px" text-anchor="middle" transform="rotate(0,0,16)" x="0" y="16">
1980
</text>
</g>
<g class="tick" transform="translate(850,0)">
<line shape-rendering="crispEdges" stroke="#bbbbbb" stroke-width="1px" x1="0" x2="0" y1="0" y2="6"/>
<text dy=".35em" fill="#777" font-family="sans-serif" font-size="12px" text-anchor="middle" transform="rotate(0,0,16)" x="0" y="16">
2000
</text>
</g>
<g class="tick" transform="translate(1020.00006,0)">
<line shape-rendering="crispEdges" stroke="#bbbbbb" stroke-width="1px" x1="0" x2="0" y1="0" y2="6"/>
<text dy=".35em" fill="#777" font-family="sans-serif" font-size="12px" text-anchor="middle" transform="rotate(0,0,16)" x="0" y="16">
2020
</text>
</g>
<g class="tick" transform="translate(1190,0)">
<line shape-rendering="crispEdges" stroke="#bbbbbb" stroke-width="1px" x1="0" x2="0" y1="0" y2="6"/>
<text dy=".35em" fill="#777" font-family="sans-serif" font-size="12px" text-anchor="middle" transform="rotate(0,0,16)" x="0" y="16">
2040
</text>
</g>
<g class="tick" transform="translate(1360,0)">
<line shape-rendering="crispEdges" stroke="#bbbbbb" stroke-width="1px" x1="0" x2="0" y1="0" y2="6"/>
<text dy=".35em" fill="#777" font-family="sans-serif" font-size="12px" text-anchor="middle" transform="rotate(0,0,16)" x="0" y="16">
2060
</text>
</g>
<g class="tick" transform="translate(1530,0)">
<line shape-rendering="crispEdges" stroke="#bbbbbb" stroke-width="1px" x1="0" x2="0" y1="0" y2="6"/>
<text dy=".35em" fill="#777" font-family="sans-serif" font-size="12px" text-anchor="middle" transform="rotate(0,0,16)" x="0" y="16">
2080
</text>
</g>
<g class="tick" transform="translate(1700,0)">
<line shape-rendering="crispEdges" stroke="#bbbbbb" stroke-width="1px" x1="0" x2="0" y1="0" y2="6"/>
<text dy=".35em" fill="#777" font-family="sans-serif" font-size="12px" text-anchor="middle" transform="rotate(0,0,16)" x="0" y="16">
2100
</text>
</g>
<text fill="#777" font-family="sans-serif" font-size="14px" text-anchor="middle" transform="rotate(0)" x="850" y="42">
Year
</text>
</g>
<g class="y-axis" transform="translate(60,90)">
<line shape-rendering="crispEdges" stroke="#bbbbbb" stroke-width="1" x1="0" x2="0" y1="0" y2="460"/>
<g class="tick" transform="translate(0,460)">
<line shape-rendering="crispEdges" stroke="#bbbbbb" stroke-width="1px" x1="0" x2="-6" y1="0" y2="0"/>
<text dy=".35em" fill="#777" font-family="sans-serif" font-size="12px" text-anchor="end" transform="rotate(0,-12,0)" x="-12" y="0">
0
</text>
</g>
<g class="tick" transform="translate(0,414)">
<line shape-rendering="crispEdges" stroke="#bbbbbb" stroke-width="1px" x1="0" x2="-6" y1="0" y2="0"/>
<text dy=".35em" fill="#777" font-family="sans-serif" font-size="12px" text-anchor="end" transform="rotate(0,-12,0)" x="-12" y="0">
10
</text>
</g>
<g class="tick" transform="translate(0,368)">
<line shape-rendering="crispEdges" stroke="#bbbbbb" stroke-width="1px" x1="0" x2="-6" y1="0" y2="0"/>
<text dy=".35em" fill="#777" font-family="sans-serif" font-size="12px" text-anchor="end" transform="rotate(0,-12,0)" x="-12" y="0">
20
</text>
</g>
<g class="tick" transform="translate(0,322)">
<line shape-rendering="crispEdges" stroke="#bbbbbb" stroke-width="1px" x1="0" x2="-6" y1="0" y2="0"/>
<text dy=".35em" fill="#777" font-family="sans-serif" font-size="12px" text-anchor="end" transform="rotate(0,-12,0)" x="-12" y="0">
30
</text>
</g>
<g class="tick" transform="translate(0,276)">
<line shape-rendering="crispEdges" stroke="#bbbbbb" stroke-width="1px" x1="0" x2="-6" y1="0" y2="0"/>
<text dy=".35em" fill="#777" font-family="sans-serif" font-size="12px" text-anchor="end" transform="rotate(0,-12,0)" x="-12" y="0">
40
</text>
</g>
<g class="tick" transform="translate(0,230)">
<line shape-rendering="crispEdges" stroke="#bbbbbb" stroke-width="1px" x1="0" x2="-6" y1="0" y2="0"/>
<text dy=".35em" fill="#777" font-family="sans-serif" font-size="12px" text-anchor="end" transform="rotate(0,-12,0)" x="-12" y="0">
50
</text>
</g>
<g class="tick" transform="translate(0,184)">
<line shape-rendering="crispEdges" stroke="#bbbbbb" stroke-width="1px" x1="0" x2="-6" y1="0" y2="0"/>
<text dy=".35em" fill="#777" font-family="sans-serif" font-size="12px" text-anchor="end" transform="rotate(0,-12,0)" x="-12" y="0">
60
</text>
</g>
<g class="tick" transform="translate(0,138)">
<line shape-rendering="crispEdges" stroke="#bbbbbb" stroke-width="1px" x1="0" x2="-6" y1="0" y2="0"/>
<text dy=".35em" fill="#777" font-family="sans-serif" font-size="12px" text-anchor="end" transform="rotate(0,-12,0)" x="-12" y="0">
70
</text>
</g>
<g class="tick" transform="translate(0,92)">
<line shape-rendering="crispEdges" stroke="#bbbbbb" stroke-width="1px" x1="0" x2="-6" y1="0" y2="0"/>
<text dy=".35em" fill="#777" font-family="sans-serif" font-size="12px" text-anchor="end" transform="rotate(0,-12,0)" x="-12" y="0">
80
</text>
</g>
<g class="tick" transform="translate(0,46)">
<line shape-rendering="crispEdges" stroke="#bbbbbb" stroke-width="1px" x1="0" x2="-6" y1="0" y2="0"/>
<text dy=".35em" fill="#777" font-family="sans-serif" font-size="12px" text-anchor="end" transform="rotate(0,-12,0)" x="-12" y="0">
90
</text>
</g>
<g class="tick" transform="translate(0,0)">
<line shape-rendering="crispEdges" stroke="#bbbbbb" stroke-width="1px" x1="0" x2="-6" y1="0" y2="0"/>
<text dy=".35em" fill="#777" font-family="sans-serif" font-size="12px" text-anchor="end" transform="rotate(0,-12,0)" x="-12" y="0">
100
</text>
</g>
<text fill="#777" font-family="sans-serif" font-size="14px" text-anchor="middle" transform="rotate(-90)" x="-230" y="-42">
Survival Rate (%)
</text>
</g>
<g class="g-view" transform="translate(60,90)">
<g>
<g class="line">
<path d="M0,234.59999 L85,213.808 L170,192.64801 L255.00002,178.802 L340,167.66998 L425,157.27402 L510.00003,152.996 L595,147.89001 L680,142.69199 L765,138.73602 L850,135.332 L935,132.388 L1020.00006,129.76599 L1105,127.328 L1190,124.981995 L1275,122.81998 L1360,120.75 L1445,118.772 L1530,116.93201 L1615,115.138 L1700,113.436005" fill="none" stroke="#1b9e77" stroke-width="2"/>
<g class="scatter-point" transform="translate(0,234.59999)">
<rect fill="#1b9e77" height="10" width="10" x="-5" y="-5"/>
<text dy=".35em" fill="#333" font-family="sans-serif" font-size="14px" text-anchor="middle" x="0" y="-17">
(1900, 49)
</text>
</g>
<g class="scatter-point" transform="translate(85,213.808)">
<rect fill="#1b9e77" height="10" width="10" x="-5" y="-5"/>
<text dy=".35em" fill="#333" font-family="sans-serif" font-size="14px" text-anchor="middle" x="0" y="-17">
(1910, 53.52)
</text>
</g>
<g class="scatter-point" transform="translate(170,192.64801)">
<rect fill="#1b9e77" height="10" width="10" x="-5" y="-5"/>
<text dy=".35em" fill="#333" font-family="sans-serif" font-size="14px" text-anchor="middle" x="0" y="-17">
(1920, 58.12)
</text>
</g>
<g class="scatter-point" transform="translate(255.00002,178.802)">
<rect fill="#1b9e77" height="10" width="10" x="-5" y="-5"/>
<text dy=".35em" fill="#333" font-family="sans-serif" font-size="14px" text-anchor="middle" x="0" y="-17">
(1930, 61.13)
</text>
</g>
<g class="scatter-point" transform="translate(340,167.66998)">
<rect fill="#1b9e77" height="10" width="10" x="-5" y="-5"/>
<text dy=".35em" fill="#333" font-family="sans-serif" font-size="14px" text-anchor="middle" x="0" y="-17">
(1940, 63.55)
</text>
</g>
<g class="scatter-point" transform="translate(425,157.27402)">
<rect fill="#1b9e77" height="10" width="10" x="-5" y="-5"/>
<text dy=".35em" fill="#333" font-family="sans-serif" font-size="14px" text-anchor="middle" x="0" y="-17">
(1950, 65.81)
</text>
</g>
<g class="scatter-point" transform="translate(510.00003,152.996)">
<rect fill="#1b9e77" height="10" width="10" x="-5" y="-5"/>
<text dy=".35em" fill="#333" font-family="sans-serif" font-size="14px" text-anchor="middle" x="0" y="-17">
(1960, 66.74)
</text>
</g>
<g class="scatter-point" transform="translate(595,147.89001)">
<rect fill="#1b9e77" height="10" width="10" x="-5" y="-5"/>
<text dy=".35em" fill="#333" font-family="sans-serif" font-size="14px" text-anchor="middle" x="0" y="-17">
(1970, 67.85)
</text>
</g>
<g class="scatter-point" transform="translate(680,142.69199)">
<rect fill="#1b9e77" height="10" width="10" x="-5" y="-5"/>
<text dy=".35em" fill="#333" font-family="sans-serif" font-size="14px" text-anchor="middle" x="0" y="-17">
(1980, 68.98)
</text>
</g>
<g class="scatter-point" transform="translate(765,138.73602)">
<rect fill="#1b9e77" height="10" width="10" x="-5" y="-5"/>
<text dy=".35em" fill="#333" font-family="sans-serif" font-size="14px" text-anchor="middle" x="0" y="-17">
(1990, 69.84)
</text>
</g>
<g class="scatter-point" transform="translate(850,135.332)">
<rect fill="#1b9e77" height="10" width="10" x="-5" y="-5"/>
<text dy=".35em" fill="#333" font-family="sans-serif" font-size="14px" text-anchor="middle" x="0" y="-17">
(2000, 70.58)
</text>
</g>
<g class="scatter-point" transform="translate(935,132.388)">
<rect fill="#1b9e77" height="10" width="10" x="-5" y="-5"/>
<text dy=".35em" fill="#333" font-family="sans-serif" font-size="14px" text-anchor="middle" x="0" y="-17">
(2010, 71.22)
</text>
</g>
<g class="scatter-point" transform="translate(1020.00006,129.76599)">
<rect fill="#1b9e77" height="10" width="10" x="-5" y="-5"/>
<text dy=".35em" fill="#333" font-family="sans-serif" font-size="14px" text-anchor="middle" x="0" y="-17">
(2020, 71.79)
</text>
</g>
<g class="scatter-point" transform="translate(1105,127.328)">
<rect fill="#1b9e77" height="10" width="10" x="-5" y="-5"/>
<text dy=".35em" fill="#333" font-family="sans-serif" font-size="14px" text-anchor="middle" x="0" y="-17">
(2030, 72.32)
</text>
</g>
<g class="scatter-point" transform="translate(1190,124.981995)">
<rect fill="#1b9e77" height="10" width="10" x="-5" y="-5"/>
<text dy=".35em" fill="#333" font-family="sans-serif" font-size="14px" text-anchor="middle" x="0" y="-17">
(2040, 72.83)
</text>
</g>
<g class="scatter-point" transform="translate(1275,122.81998)">
<rect fill="#1b9e77" height="10" width="10" x="-5" y="-5"/>
<text dy=".35em" fill="#333" font-family="sans-serif" font-size="14px" text-anchor="middle" x="0" y="-17">
(2050, 73.3)
</text>
</g>
<g class="scatter-point" transform="translate(1360,120.75)">
<rect fill="#1b9e77" height="10" width="10" x="-5" y="-5"/>
<text dy=".35em" fill="#333" font-family="sans-serif" font-size="14px" text-anchor="middle" x="0" y="-17">
(2060, 73.75)
</text>
</g>
<g class="scatter-point" transform="translate(1445,118.772)">
<rect fill="#1b9e77" height="10" width="10" x="-5" y="-5"/>
<text dy=".35em" fill="#333" font-family="sans-serif" font-size="14px" text-anchor="middle" x="0" y="-17">
(2070, 74.18)
</text>
</g>
<g class="scatter-point" transform="translate(1530,116.93201)">
<rect fill="#1b9e77" height="10" width="10" x="-5" y="-5"/>
<text dy=".35em" fill="#333" font-family="sans-serif" font-size="14px" text-anchor="middle" x="0" y="-17">
(2080, 74.58)
</text>
</g>
<g class="scatter-point" transform="translate(1615,115.138)">
<rect fill="#1b9e77" height="10" width="10" x="-5" y="-5"/>
<text dy=".35em" fill="#333" font-family="sans-serif" font-size="14px" text-anchor="middle" x="0" y="-17">
(2090, 74.97)
</text>
</g>
<g class="scatter-point" transform="translate(1700,113.436005)">
<rect fill="#1b9e77" height="10" width="10" x="-5" y="-5"/>
<text dy=".35em" fill="#333" font-family="sans-serif" font-size="14px" text-anchor="middle" x="0" y="-17">
(2100, 75.34)
</text>
</g>
</g>
</g>
<g>
<g class="line">
<path d="M0,260.498 L85,242.558 L170,221.21399 L255.00002,204.65402 L340,191.406 L425,180.32 L510.00003,174.84601 L595,167.486 L680,160.58603 L765,155.61798 L850,151.34 L935,147.706 L1020.00006,144.53198 L1105,141.54199 L1190,138.78201 L1275,136.16 L1360,133.676 L1445,131.33002 L1530,129.12198 L1615,126.95999 L1700,124.981995" fill="none" stroke="#1f77b4" stroke-width="2"/>
<g class="scatter-point" transform="translate(0,260.498)">
<circle cx="0" cy="0" fill="#1f77b4" r="5"/>
<text dy=".35em" fill="#333" font-family="sans-serif" font-size="14px" text-anchor="middle" x="0" y="17">
(1900, 43.37)
</text>
</g>
<g class="scatter-point" transform="translate(85,242.558)">
<circle cx="0" cy="0" fill="#1f77b4" r="5"/>
<text dy=".35em" fill="#333" font-family="sans-serif" font-size="14px" text-anchor="middle" x="0" y="17">
(1910, 47.27)
</text>
</g>
<g class="scatter-point" transform="translate(170,221.21399)">
<circle cx="0" cy="0" fill="#1f77b4" r="5"/>
<text dy=".35em" fill="#333" font-family="sans-serif" font-size="14px" text-anchor="middle" x="0" y="17">
(1920, 51.91)
</text>
</g>
<g class="scatter-point" transform="translate(255.00002,204.65402)">
<circle cx="0" cy="0" fill="#1f77b4" r="5"/>
<text dy=".35em" fill="#333" font-family="sans-serif" font-size="14px" text-anchor="middle" x="0" y="17">
(1930, 55.51)
</text>
</g>
<g class="scatter-point" transform="translate(340,191.406)">
<circle cx="0" cy="0" fill="#1f77b4" r="5"/>
<text dy=".35em" fill="#333" font-family="sans-serif" font-size="14px" text-anchor="middle" x="0" y="17">
(1940, 58.39)
</text>
</g>
<g class="scatter-point" transform="translate(425,180.32)">
<circle cx="0" cy="0" fill="#1f77b4" r="5"/>
<text dy=".35em" fill="#333" font-family="sans-serif" font-size="14px" text-anchor="middle" x="0" y="17">
(1950, 60.8)
</text>
</g>
<g class="scatter-point" transform="translate(510.00003,174.84601)">
<circle cx="0" cy="0" fill="#1f77b4" r="5"/>
<text dy=".35em" fill="#333" font-family="sans-serif" font-size="14px" text-anchor="middle" x="0" y="17">
(1960, 61.99)
</text>
</g>
<g class="scatter-point" transform="translate(595,167.486)">
<circle cx="0" cy="0" fill="#1f77b4" r="5"/>
<text dy=".35em" fill="#333" font-family="sans-serif" font-size="14px" text-anchor="middle" x="0" y="17">
(1970, 63.59)
</text>
</g>
<g class="scatter-point" transform="translate(680,160.58603)">
<circle cx="0" cy="0" fill="#1f77b4" r="5"/>
<text dy=".35em" fill="#333" font-family="sans-serif" font-size="14px" text-anchor="middle" x="0" y="17">
(1980, 65.09)
</text>
</g>
<g class="scatter-point" transform="translate(765,155.61798)">
<circle cx="0" cy="0" fill="#1f77b4" r="5"/>
<text dy=".35em" fill="#333" font-family="sans-serif" font-size="14px" text-anchor="middle" x="0" y="17">
(1990, 66.17)
</text>
</g>
<g class="scatter-point" transform="translate(850,151.34)">
<circle cx="0" cy="0" fill="#1f77b4" r="5"/>
<text dy=".35em" fill="#333" font-family="sans-serif" font-size="14px" text-anchor="middle" x="0" y="17">
(2000, 67.1)
</text>
</g>
<g class="scatter-point" transform="translate(935,147.706)">
<circle cx="0" cy="0" fill="#1f77b4" r="5"/>
<text dy=".35em" fill="#333" font-family="sans-serif" font-size="14px" text-anchor="middle" x="0" y="17">
(2010, 67.89)
</text>
</g>
<g class="scatter-point" transform="translate(1020.00006,144.53198)">
<circle cx="0" cy="0" fill="#1f77b4" r="5"/>
<text dy=".35em" fill="#333" font-family="sans-serif" font-size="14px" text-anchor="middle" x="0" y="17">
(2020, 68.58)
</text>
</g>
<g class="scatter-point" transform="translate(1105,141.54199)">
<circle cx="0" cy="0" fill="#1f77b4" r="5"/>
<text dy=".35em" fill="#333" font-family="sans-serif" font-size="14px" text-anchor="middle" x="0" y="17">
(2030, 69.23)
</text>
</g>
<g class="scatter-point" transform="translate(1190,138.78201)">
<circle cx="0" cy="0" fill="#1f77b4" r="5"/>
<text dy=".35em" fill="#333" font-family="sans-serif" font-size="14px" text-anchor="middle" x="0" y="17">
(2040, 69.83)
</text>
</g>
<g class="scatter-point" transform="translate(1275,136.16)">
<circle cx="0" cy="0" fill="#1f77b4" r="5"/>
<text dy=".35em" fill="#333" font-family="sans-serif" font-size="14px" text-anchor="middle" x="0" y="17">
(2050, 70.4)
</text>
</g>
<g class="scatter-point" transform="translate(1360,133.676)">
<circle cx="0" cy="0" fill="#1f77b4" r="5"/>
<text dy=".35em" fill="#333" font-family="sans-serif" font-size="14px" text-anchor="middle" x="0" y="17">
(2060, 70.94)
</text>
</g>
<g class="scatter-point" transform="translate(1445,131.33002)">
<circle cx="0" cy="0" fill="#1f77b4" r="5"/>
<text dy=".35em" fill="#333" font-family="sans-serif" font-size="14px" text-anchor="middle" x="0" y="17">
(2070, 71.45)
</text>
</g>
<g class="scatter-point" transform="translate(1530,129.12198)">
<circle cx="0" cy="0" fill="#1f77b4" r="5"/>
<text dy=".35em" fill="#333" font-family="sans-serif" font-size="14px" text-anchor="middle" x="0" y="17">
(2080, 71.93)
</text>
</g>
<g class="scatter-point" transform="translate(1615,126.95999)">
<circle cx="0" cy="0" fill="#1f77b4" r="5"/>
<text dy=".35em" fill="#333" font-family="sans-serif" font-size="14px" text-anchor="middle" x="0" y="17">
(2090, 72.4)
</text>
</g>
<g class="scatter-point" transform="translate(1700,124.981995)">
<circle cx="0" cy="0" fill="#1f77b4" r="5"/>
<text dy=".35em" fill="#333" font-family="sans-serif" font-size="14px" text-anchor="middle" x="0" y="17">
(2100, 72.83)
</text>
</g>
</g>
</g>
</g>
<g class="g-legend" transform="translate(1780,90)">
<g class="legend-entry" transform="translate(0,0)">
<line stroke="#1b9e77" stroke-dasharray="none" stroke-width="2px" x1="0" x2="14" y1="7" y2="7"/>
<text dy=".35em" fill="#777" font-family="sans-serif" font-size="12px" x="20" y="7">
Female
</text>
</g>
<g class="legend-entry" transform="translate(0,20)">
<line stroke="#1f77b4" stroke-dasharray="none" stroke-width="2px" x1="0" x2="14" y1="7" y2="7"/>
<text dy=".35em" fill="#777" font-family="sans-serif" font-size="12px" x="20" y="7">
Male
</text>
</g>
</g>
</g>
</svg>